# xmcd
#
# Track frame offsets:
#	150
#	26706
#	51840
#	65269
#	96043
#	117277
#	140641
#	168465
#	188649
#	209333
#	222492
#	251126
#
# Disc length: 3859 seconds
#
# Revision: 0
# Processed by: cddbd v1.4PL0 Copyright (c) Steve Scherf et al.
# Submitted via: dBpowerAMP V4.0
#
DISCID=b50f110c
DTITLE=Vanessa Mae - Vanessa Mae
DYEAR=2001
DGENRE=Dance
TTITLE0=Yaztra
TTITLE1=White Bird
TTITLE2=Picante
TTITLE3=Destiny
TTITLE4=Night Flight
TTITLE5=Clear like Ice
TTITLE6=Laughing Buddha
TTITLE7=Pasha
TTITLE8=Soleco
TTITLE9=Love is Only a Game
TTITLE10=Deep South
TTITLE11=Jamata
EXTD=
EXTT0=
EXTT1=
EXTT2=
EXTT3=
EXTT4=
EXTT5=
EXTT6=
EXTT7=
EXTT8=
EXTT9=
EXTT10=
EXTT11=
PLAYORDER=
